<mxfile host="app.diagrams.net" agent="Mozilla/5.0 (Macintosh; Intel Mac OS X 10_15_7) AppleWebKit/537.36 (KHTML, like Gecko) Chrome/131.0.0.0 Safari/537.36" version="25.0.3">
  <diagram id="cjc6E5WjeqhHvpoz-hhE" name="Trang-1">
    <mxGraphModel dx="1837" dy="983" grid="1" gridSize="10" guides="1" tooltips="1" connect="1" arrows="1" fold="1" page="1" pageScale="1" pageWidth="827" pageHeight="1169" math="0" shadow="0">
      <root>
        <mxCell id="0" />
        <mxCell id="1" parent="0" />
        <mxCell id="bTF0H9JN2Bej_xpVJtce-15" style="edgeStyle=orthogonalEdgeStyle;rounded=0;orthogonalLoop=1;jettySize=auto;html=1;entryX=0;entryY=0.5;entryDx=0;entryDy=0;" edge="1" parent="1" source="bTF0H9JN2Bej_xpVJtce-1" target="bTF0H9JN2Bej_xpVJtce-2">
          <mxGeometry relative="1" as="geometry" />
        </mxCell>
        <mxCell id="bTF0H9JN2Bej_xpVJtce-1" value="Khách hàng" style="shape=umlActor;verticalLabelPosition=bottom;verticalAlign=top;html=1;outlineConnect=0;" vertex="1" parent="1">
          <mxGeometry x="130" y="290" width="30" height="60" as="geometry" />
        </mxCell>
        <mxCell id="bTF0H9JN2Bej_xpVJtce-2" value="Quản lí tài khoản" style="ellipse;whiteSpace=wrap;html=1;" vertex="1" parent="1">
          <mxGeometry x="280" y="280" width="120" height="80" as="geometry" />
        </mxCell>
        <mxCell id="bTF0H9JN2Bej_xpVJtce-3" value="&amp;lt;&amp;lt;extend&amp;gt;&amp;gt;" style="html=1;verticalAlign=bottom;labelBackgroundColor=none;endArrow=open;endFill=0;dashed=1;rounded=0;entryX=0.5;entryY=0;entryDx=0;entryDy=0;exitX=0;exitY=1;exitDx=0;exitDy=0;" edge="1" parent="1" source="bTF0H9JN2Bej_xpVJtce-5" target="bTF0H9JN2Bej_xpVJtce-2">
          <mxGeometry width="160" relative="1" as="geometry">
            <mxPoint x="70" y="450" as="sourcePoint" />
            <mxPoint x="220" y="450" as="targetPoint" />
          </mxGeometry>
        </mxCell>
        <mxCell id="bTF0H9JN2Bej_xpVJtce-4" value="Đăng kí" style="ellipse;whiteSpace=wrap;html=1;" vertex="1" parent="1">
          <mxGeometry x="240" y="120" width="120" height="80" as="geometry" />
        </mxCell>
        <mxCell id="bTF0H9JN2Bej_xpVJtce-5" value="Đăng nhập" style="ellipse;whiteSpace=wrap;html=1;" vertex="1" parent="1">
          <mxGeometry x="400" y="120" width="120" height="80" as="geometry" />
        </mxCell>
        <mxCell id="bTF0H9JN2Bej_xpVJtce-6" value="Xem thông tin tài khoản" style="ellipse;whiteSpace=wrap;html=1;" vertex="1" parent="1">
          <mxGeometry x="480" y="230" width="120" height="80" as="geometry" />
        </mxCell>
        <mxCell id="bTF0H9JN2Bej_xpVJtce-7" value="Cập nhật thông tin&amp;nbsp;&lt;div&gt;tài khoản&lt;/div&gt;" style="ellipse;whiteSpace=wrap;html=1;" vertex="1" parent="1">
          <mxGeometry x="480" y="340" width="120" height="80" as="geometry" />
        </mxCell>
        <mxCell id="bTF0H9JN2Bej_xpVJtce-8" value="Xoa tài khoản" style="ellipse;whiteSpace=wrap;html=1;" vertex="1" parent="1">
          <mxGeometry x="240" y="440" width="120" height="80" as="geometry" />
        </mxCell>
        <mxCell id="bTF0H9JN2Bej_xpVJtce-9" value="Yêu cầu đổi mật khẩu" style="ellipse;whiteSpace=wrap;html=1;" vertex="1" parent="1">
          <mxGeometry x="400" y="440" width="120" height="80" as="geometry" />
        </mxCell>
        <mxCell id="bTF0H9JN2Bej_xpVJtce-10" value="&amp;lt;&amp;lt;extend&amp;gt;&amp;gt;" style="html=1;verticalAlign=bottom;labelBackgroundColor=none;endArrow=open;endFill=0;dashed=1;rounded=0;entryX=1;entryY=0;entryDx=0;entryDy=0;exitX=0;exitY=0.5;exitDx=0;exitDy=0;" edge="1" parent="1" source="bTF0H9JN2Bej_xpVJtce-6" target="bTF0H9JN2Bej_xpVJtce-2">
          <mxGeometry width="160" relative="1" as="geometry">
            <mxPoint x="428" y="198" as="sourcePoint" />
            <mxPoint x="392" y="302" as="targetPoint" />
          </mxGeometry>
        </mxCell>
        <mxCell id="bTF0H9JN2Bej_xpVJtce-11" value="&amp;lt;&amp;lt;extend&amp;gt;&amp;gt;" style="html=1;verticalAlign=bottom;labelBackgroundColor=none;endArrow=open;endFill=0;dashed=1;rounded=0;entryX=1;entryY=1;entryDx=0;entryDy=0;exitX=0;exitY=0.5;exitDx=0;exitDy=0;" edge="1" parent="1" source="bTF0H9JN2Bej_xpVJtce-7" target="bTF0H9JN2Bej_xpVJtce-2">
          <mxGeometry width="160" relative="1" as="geometry">
            <mxPoint x="490" y="280" as="sourcePoint" />
            <mxPoint x="392" y="302" as="targetPoint" />
          </mxGeometry>
        </mxCell>
        <mxCell id="bTF0H9JN2Bej_xpVJtce-12" value="&amp;lt;&amp;lt;extend&amp;gt;&amp;gt;" style="html=1;verticalAlign=bottom;labelBackgroundColor=none;endArrow=open;endFill=0;dashed=1;rounded=0;entryX=0.5;entryY=1;entryDx=0;entryDy=0;exitX=0;exitY=0;exitDx=0;exitDy=0;" edge="1" parent="1" source="bTF0H9JN2Bej_xpVJtce-9" target="bTF0H9JN2Bej_xpVJtce-2">
          <mxGeometry width="160" relative="1" as="geometry">
            <mxPoint x="428" y="198" as="sourcePoint" />
            <mxPoint x="350" y="290" as="targetPoint" />
          </mxGeometry>
        </mxCell>
        <mxCell id="bTF0H9JN2Bej_xpVJtce-13" value="&amp;lt;&amp;lt;extend&amp;gt;&amp;gt;" style="html=1;verticalAlign=bottom;labelBackgroundColor=none;endArrow=open;endFill=0;dashed=1;rounded=0;entryX=0;entryY=1;entryDx=0;entryDy=0;exitX=0.5;exitY=0;exitDx=0;exitDy=0;" edge="1" parent="1" source="bTF0H9JN2Bej_xpVJtce-8" target="bTF0H9JN2Bej_xpVJtce-2">
          <mxGeometry width="160" relative="1" as="geometry">
            <mxPoint x="428" y="462" as="sourcePoint" />
            <mxPoint x="350" y="370" as="targetPoint" />
          </mxGeometry>
        </mxCell>
        <mxCell id="bTF0H9JN2Bej_xpVJtce-14" value="&amp;lt;&amp;lt;include&amp;gt;&amp;gt;" style="html=1;verticalAlign=bottom;labelBackgroundColor=none;endArrow=open;endFill=0;dashed=1;rounded=0;exitX=0;exitY=0;exitDx=0;exitDy=0;entryX=0.5;entryY=1;entryDx=0;entryDy=0;" edge="1" parent="1" source="bTF0H9JN2Bej_xpVJtce-2" target="bTF0H9JN2Bej_xpVJtce-4">
          <mxGeometry width="160" relative="1" as="geometry">
            <mxPoint x="260" y="330" as="sourcePoint" />
            <mxPoint x="420" y="330" as="targetPoint" />
          </mxGeometry>
        </mxCell>
        <mxCell id="bTF0H9JN2Bej_xpVJtce-16" style="edgeStyle=orthogonalEdgeStyle;rounded=0;orthogonalLoop=1;jettySize=auto;html=1;entryX=0;entryY=0.5;entryDx=0;entryDy=0;" edge="1" parent="1" source="bTF0H9JN2Bej_xpVJtce-17" target="bTF0H9JN2Bej_xpVJtce-18">
          <mxGeometry relative="1" as="geometry" />
        </mxCell>
        <mxCell id="bTF0H9JN2Bej_xpVJtce-17" value="Khách hàng" style="shape=umlActor;verticalLabelPosition=bottom;verticalAlign=top;html=1;outlineConnect=0;" vertex="1" parent="1">
          <mxGeometry x="690" y="290" width="30" height="60" as="geometry" />
        </mxCell>
        <mxCell id="bTF0H9JN2Bej_xpVJtce-18" value="Quản lí sản phẩm" style="ellipse;whiteSpace=wrap;html=1;" vertex="1" parent="1">
          <mxGeometry x="840" y="280" width="120" height="80" as="geometry" />
        </mxCell>
        <mxCell id="bTF0H9JN2Bej_xpVJtce-19" value="&amp;lt;&amp;lt;extend&amp;gt;&amp;gt;" style="html=1;verticalAlign=bottom;labelBackgroundColor=none;endArrow=open;endFill=0;dashed=1;rounded=0;entryX=1;entryY=0;entryDx=0;entryDy=0;exitX=0;exitY=1;exitDx=0;exitDy=0;" edge="1" parent="1" source="bTF0H9JN2Bej_xpVJtce-21" target="bTF0H9JN2Bej_xpVJtce-18">
          <mxGeometry width="160" relative="1" as="geometry">
            <mxPoint x="630" y="450" as="sourcePoint" />
            <mxPoint x="780" y="450" as="targetPoint" />
          </mxGeometry>
        </mxCell>
        <mxCell id="bTF0H9JN2Bej_xpVJtce-20" value="Tìm kiếm sản phẩm" style="ellipse;whiteSpace=wrap;html=1;" vertex="1" parent="1">
          <mxGeometry x="1040" y="280" width="120" height="80" as="geometry" />
        </mxCell>
        <mxCell id="bTF0H9JN2Bej_xpVJtce-21" value="Xem thông tin sản phẩm&amp;nbsp;" style="ellipse;whiteSpace=wrap;html=1;" vertex="1" parent="1">
          <mxGeometry x="1040" y="160" width="120" height="80" as="geometry" />
        </mxCell>
        <mxCell id="bTF0H9JN2Bej_xpVJtce-22" value="Đánh giá sản phẩm" style="ellipse;whiteSpace=wrap;html=1;" vertex="1" parent="1">
          <mxGeometry x="1040" y="400" width="120" height="80" as="geometry" />
        </mxCell>
        <mxCell id="bTF0H9JN2Bej_xpVJtce-26" value="&amp;lt;&amp;lt;extend&amp;gt;&amp;gt;" style="html=1;verticalAlign=bottom;labelBackgroundColor=none;endArrow=open;endFill=0;dashed=1;rounded=0;entryX=1;entryY=1;entryDx=0;entryDy=0;exitX=0;exitY=0.5;exitDx=0;exitDy=0;" edge="1" parent="1" source="bTF0H9JN2Bej_xpVJtce-22" target="bTF0H9JN2Bej_xpVJtce-18">
          <mxGeometry width="160" relative="1" as="geometry">
            <mxPoint x="988" y="198" as="sourcePoint" />
            <mxPoint x="952" y="302" as="targetPoint" />
          </mxGeometry>
        </mxCell>
        <mxCell id="bTF0H9JN2Bej_xpVJtce-46" value="&amp;lt;&amp;lt;extend&amp;gt;&amp;gt;" style="html=1;verticalAlign=bottom;labelBackgroundColor=none;endArrow=open;endFill=0;dashed=1;rounded=0;entryX=1;entryY=0.5;entryDx=0;entryDy=0;exitX=0;exitY=0.5;exitDx=0;exitDy=0;" edge="1" parent="1" source="bTF0H9JN2Bej_xpVJtce-20" target="bTF0H9JN2Bej_xpVJtce-18">
          <mxGeometry width="160" relative="1" as="geometry">
            <mxPoint x="1068" y="238" as="sourcePoint" />
            <mxPoint x="952" y="302" as="targetPoint" />
          </mxGeometry>
        </mxCell>
        <mxCell id="bTF0H9JN2Bej_xpVJtce-47" value="Tìm kiếm sản phẩm" style="ellipse;whiteSpace=wrap;html=1;" vertex="1" parent="1">
          <mxGeometry x="1241" y="280" width="120" height="80" as="geometry" />
        </mxCell>
        <mxCell id="bTF0H9JN2Bej_xpVJtce-48" value="TÌm kiếm theo tên" style="ellipse;whiteSpace=wrap;html=1;" vertex="1" parent="1">
          <mxGeometry x="1440" y="120" width="120" height="80" as="geometry" />
        </mxCell>
        <mxCell id="bTF0H9JN2Bej_xpVJtce-49" value="Tìm kiếm theo&amp;nbsp;&lt;div&gt;thể loại&lt;/div&gt;" style="ellipse;whiteSpace=wrap;html=1;" vertex="1" parent="1">
          <mxGeometry x="1440" y="230" width="120" height="80" as="geometry" />
        </mxCell>
        <mxCell id="bTF0H9JN2Bej_xpVJtce-50" value="Tìm kiếm theo&lt;div&gt;tác giả&lt;/div&gt;" style="ellipse;whiteSpace=wrap;html=1;" vertex="1" parent="1">
          <mxGeometry x="1440" y="330" width="120" height="80" as="geometry" />
        </mxCell>
        <mxCell id="bTF0H9JN2Bej_xpVJtce-51" value="Tìm kiếm theo&amp;nbsp;&lt;div&gt;nhà xuất bản&lt;/div&gt;" style="ellipse;whiteSpace=wrap;html=1;" vertex="1" parent="1">
          <mxGeometry x="1440" y="440" width="120" height="80" as="geometry" />
        </mxCell>
        <mxCell id="bTF0H9JN2Bej_xpVJtce-52" value="&amp;lt;&amp;lt;extend&amp;gt;&amp;gt;" style="html=1;verticalAlign=bottom;labelBackgroundColor=none;endArrow=open;endFill=0;dashed=1;rounded=0;entryX=0.5;entryY=0;entryDx=0;entryDy=0;exitX=0;exitY=0.5;exitDx=0;exitDy=0;" edge="1" parent="1" source="bTF0H9JN2Bej_xpVJtce-48" target="bTF0H9JN2Bej_xpVJtce-47">
          <mxGeometry width="160" relative="1" as="geometry">
            <mxPoint x="1068" y="238" as="sourcePoint" />
            <mxPoint x="952" y="302" as="targetPoint" />
          </mxGeometry>
        </mxCell>
        <mxCell id="bTF0H9JN2Bej_xpVJtce-53" value="&amp;lt;&amp;lt;extend&amp;gt;&amp;gt;" style="html=1;verticalAlign=bottom;labelBackgroundColor=none;endArrow=open;endFill=0;dashed=1;rounded=0;entryX=1;entryY=0;entryDx=0;entryDy=0;exitX=0;exitY=0.5;exitDx=0;exitDy=0;" edge="1" parent="1" source="bTF0H9JN2Bej_xpVJtce-49" target="bTF0H9JN2Bej_xpVJtce-47">
          <mxGeometry width="160" relative="1" as="geometry">
            <mxPoint x="1450" y="170" as="sourcePoint" />
            <mxPoint x="1311" y="290" as="targetPoint" />
          </mxGeometry>
        </mxCell>
        <mxCell id="bTF0H9JN2Bej_xpVJtce-54" value="&amp;lt;&amp;lt;extend&amp;gt;&amp;gt;" style="html=1;verticalAlign=bottom;labelBackgroundColor=none;endArrow=open;endFill=0;dashed=1;rounded=0;entryX=1;entryY=1;entryDx=0;entryDy=0;exitX=0;exitY=0.5;exitDx=0;exitDy=0;" edge="1" parent="1" source="bTF0H9JN2Bej_xpVJtce-50" target="bTF0H9JN2Bej_xpVJtce-47">
          <mxGeometry width="160" relative="1" as="geometry">
            <mxPoint x="1450" y="290" as="sourcePoint" />
            <mxPoint x="1353" y="302" as="targetPoint" />
          </mxGeometry>
        </mxCell>
        <mxCell id="bTF0H9JN2Bej_xpVJtce-55" value="&amp;lt;&amp;lt;extend&amp;gt;&amp;gt;" style="html=1;verticalAlign=bottom;labelBackgroundColor=none;endArrow=open;endFill=0;dashed=1;rounded=0;entryX=0.5;entryY=1;entryDx=0;entryDy=0;exitX=0;exitY=0.5;exitDx=0;exitDy=0;" edge="1" parent="1" source="bTF0H9JN2Bej_xpVJtce-51" target="bTF0H9JN2Bej_xpVJtce-47">
          <mxGeometry width="160" relative="1" as="geometry">
            <mxPoint x="1450" y="410" as="sourcePoint" />
            <mxPoint x="1353" y="358" as="targetPoint" />
          </mxGeometry>
        </mxCell>
        <mxCell id="bTF0H9JN2Bej_xpVJtce-56" style="edgeStyle=orthogonalEdgeStyle;rounded=0;orthogonalLoop=1;jettySize=auto;html=1;entryX=0;entryY=0.5;entryDx=0;entryDy=0;" edge="1" parent="1" source="bTF0H9JN2Bej_xpVJtce-57" target="bTF0H9JN2Bej_xpVJtce-58">
          <mxGeometry relative="1" as="geometry" />
        </mxCell>
        <mxCell id="bTF0H9JN2Bej_xpVJtce-57" value="Khách hàng" style="shape=umlActor;verticalLabelPosition=bottom;verticalAlign=top;html=1;outlineConnect=0;" vertex="1" parent="1">
          <mxGeometry x="130" y="730" width="30" height="60" as="geometry" />
        </mxCell>
        <mxCell id="bTF0H9JN2Bej_xpVJtce-58" value="Quản lí đơn hàng" style="ellipse;whiteSpace=wrap;html=1;" vertex="1" parent="1">
          <mxGeometry x="280" y="720" width="120" height="80" as="geometry" />
        </mxCell>
        <mxCell id="bTF0H9JN2Bej_xpVJtce-59" value="&amp;lt;&amp;lt;extend&amp;gt;&amp;gt;" style="html=1;verticalAlign=bottom;labelBackgroundColor=none;endArrow=open;endFill=0;dashed=1;rounded=0;entryX=1;entryY=0;entryDx=0;entryDy=0;exitX=0;exitY=1;exitDx=0;exitDy=0;" edge="1" parent="1" source="bTF0H9JN2Bej_xpVJtce-61" target="bTF0H9JN2Bej_xpVJtce-58">
          <mxGeometry width="160" relative="1" as="geometry">
            <mxPoint x="70" y="890" as="sourcePoint" />
            <mxPoint x="220" y="890" as="targetPoint" />
          </mxGeometry>
        </mxCell>
        <mxCell id="bTF0H9JN2Bej_xpVJtce-60" value="Thêm sản phẩm" style="ellipse;whiteSpace=wrap;html=1;" vertex="1" parent="1">
          <mxGeometry x="280" y="560" width="120" height="80" as="geometry" />
        </mxCell>
        <mxCell id="bTF0H9JN2Bej_xpVJtce-61" value="Xóa sản phẩm" style="ellipse;whiteSpace=wrap;html=1;" vertex="1" parent="1">
          <mxGeometry x="440" y="600" width="120" height="80" as="geometry" />
        </mxCell>
        <mxCell id="bTF0H9JN2Bej_xpVJtce-62" value="Xem thông tin&amp;nbsp;&lt;div&gt;đơn hàng&lt;/div&gt;" style="ellipse;whiteSpace=wrap;html=1;" vertex="1" parent="1">
          <mxGeometry x="480" y="720" width="120" height="80" as="geometry" />
        </mxCell>
        <mxCell id="bTF0H9JN2Bej_xpVJtce-63" value="Cập nhật thông tin&amp;nbsp;&lt;div&gt;đơn hàng&lt;/div&gt;" style="ellipse;whiteSpace=wrap;html=1;" vertex="1" parent="1">
          <mxGeometry x="450" y="840" width="120" height="80" as="geometry" />
        </mxCell>
        <mxCell id="bTF0H9JN2Bej_xpVJtce-64" value="Hủy đơn hàng" style="ellipse;whiteSpace=wrap;html=1;" vertex="1" parent="1">
          <mxGeometry x="280" y="880" width="120" height="80" as="geometry" />
        </mxCell>
        <mxCell id="bTF0H9JN2Bej_xpVJtce-66" value="&amp;lt;&amp;lt;extend&amp;gt;&amp;gt;" style="html=1;verticalAlign=bottom;labelBackgroundColor=none;endArrow=open;endFill=0;dashed=1;rounded=0;entryX=1;entryY=0.5;entryDx=0;entryDy=0;exitX=0;exitY=0.5;exitDx=0;exitDy=0;" edge="1" parent="1" source="bTF0H9JN2Bej_xpVJtce-62" target="bTF0H9JN2Bej_xpVJtce-58">
          <mxGeometry width="160" relative="1" as="geometry">
            <mxPoint x="428" y="638" as="sourcePoint" />
            <mxPoint x="392" y="742" as="targetPoint" />
          </mxGeometry>
        </mxCell>
        <mxCell id="bTF0H9JN2Bej_xpVJtce-67" value="&amp;lt;&amp;lt;extend&amp;gt;&amp;gt;" style="html=1;verticalAlign=bottom;labelBackgroundColor=none;endArrow=open;endFill=0;dashed=1;rounded=0;entryX=1;entryY=1;entryDx=0;entryDy=0;exitX=0;exitY=0.5;exitDx=0;exitDy=0;" edge="1" parent="1" source="bTF0H9JN2Bej_xpVJtce-63" target="bTF0H9JN2Bej_xpVJtce-58">
          <mxGeometry width="160" relative="1" as="geometry">
            <mxPoint x="490" y="720" as="sourcePoint" />
            <mxPoint x="392" y="742" as="targetPoint" />
          </mxGeometry>
        </mxCell>
        <mxCell id="bTF0H9JN2Bej_xpVJtce-69" value="&amp;lt;&amp;lt;extend&amp;gt;&amp;gt;" style="html=1;verticalAlign=bottom;labelBackgroundColor=none;endArrow=open;endFill=0;dashed=1;rounded=0;entryX=0.5;entryY=1;entryDx=0;entryDy=0;exitX=0.5;exitY=0;exitDx=0;exitDy=0;" edge="1" parent="1" source="bTF0H9JN2Bej_xpVJtce-64" target="bTF0H9JN2Bej_xpVJtce-58">
          <mxGeometry width="160" relative="1" as="geometry">
            <mxPoint x="428" y="902" as="sourcePoint" />
            <mxPoint x="350" y="810" as="targetPoint" />
          </mxGeometry>
        </mxCell>
        <mxCell id="bTF0H9JN2Bej_xpVJtce-72" value="&amp;lt;&amp;lt;extend&amp;gt;&amp;gt;" style="html=1;verticalAlign=bottom;labelBackgroundColor=none;endArrow=open;endFill=0;dashed=1;rounded=0;entryX=0.5;entryY=0;entryDx=0;entryDy=0;exitX=0.5;exitY=1;exitDx=0;exitDy=0;" edge="1" parent="1" source="bTF0H9JN2Bej_xpVJtce-60" target="bTF0H9JN2Bej_xpVJtce-58">
          <mxGeometry width="160" relative="1" as="geometry">
            <mxPoint x="468" y="678" as="sourcePoint" />
            <mxPoint x="392" y="742" as="targetPoint" />
          </mxGeometry>
        </mxCell>
        <mxCell id="bTF0H9JN2Bej_xpVJtce-73" value="Cập nhật thông tin&amp;nbsp;&lt;div&gt;đơn hàng&lt;/div&gt;" style="ellipse;whiteSpace=wrap;html=1;" vertex="1" parent="1">
          <mxGeometry x="680" y="830" width="120" height="80" as="geometry" />
        </mxCell>
        <mxCell id="bTF0H9JN2Bej_xpVJtce-74" value="Cập nhật sản phẩm" style="ellipse;whiteSpace=wrap;html=1;" vertex="1" parent="1">
          <mxGeometry x="880" y="670" width="120" height="80" as="geometry" />
        </mxCell>
        <mxCell id="bTF0H9JN2Bej_xpVJtce-75" value="Cập nhật giao hàng" style="ellipse;whiteSpace=wrap;html=1;" vertex="1" parent="1">
          <mxGeometry x="880" y="770" width="120" height="80" as="geometry" />
        </mxCell>
        <mxCell id="bTF0H9JN2Bej_xpVJtce-78" value="Cập nhật thanh toán" style="ellipse;whiteSpace=wrap;html=1;" vertex="1" parent="1">
          <mxGeometry x="880" y="880" width="120" height="80" as="geometry" />
        </mxCell>
        <mxCell id="bTF0H9JN2Bej_xpVJtce-79" value="Quản lí mã giảm giá" style="ellipse;whiteSpace=wrap;html=1;" vertex="1" parent="1">
          <mxGeometry x="880" y="990" width="120" height="80" as="geometry" />
        </mxCell>
        <mxCell id="bTF0H9JN2Bej_xpVJtce-80" value="&amp;lt;&amp;lt;extend&amp;gt;&amp;gt;" style="html=1;verticalAlign=bottom;labelBackgroundColor=none;endArrow=open;endFill=0;dashed=1;rounded=0;entryX=0.5;entryY=0;entryDx=0;entryDy=0;exitX=0;exitY=0.5;exitDx=0;exitDy=0;" edge="1" parent="1" source="bTF0H9JN2Bej_xpVJtce-74" target="bTF0H9JN2Bej_xpVJtce-73">
          <mxGeometry width="160" relative="1" as="geometry">
            <mxPoint x="468" y="788" as="sourcePoint" />
            <mxPoint x="392" y="852" as="targetPoint" />
          </mxGeometry>
        </mxCell>
        <mxCell id="bTF0H9JN2Bej_xpVJtce-81" value="&amp;lt;&amp;lt;extend&amp;gt;&amp;gt;" style="html=1;verticalAlign=bottom;labelBackgroundColor=none;endArrow=open;endFill=0;dashed=1;rounded=0;entryX=1;entryY=0;entryDx=0;entryDy=0;exitX=0;exitY=0.5;exitDx=0;exitDy=0;" edge="1" parent="1" source="bTF0H9JN2Bej_xpVJtce-75" target="bTF0H9JN2Bej_xpVJtce-73">
          <mxGeometry width="160" relative="1" as="geometry">
            <mxPoint x="880" y="720" as="sourcePoint" />
            <mxPoint x="750" y="840" as="targetPoint" />
          </mxGeometry>
        </mxCell>
        <mxCell id="bTF0H9JN2Bej_xpVJtce-82" value="&amp;lt;&amp;lt;extend&amp;gt;&amp;gt;" style="html=1;verticalAlign=bottom;labelBackgroundColor=none;endArrow=open;endFill=0;dashed=1;rounded=0;entryX=1;entryY=1;entryDx=0;entryDy=0;exitX=0;exitY=0.5;exitDx=0;exitDy=0;" edge="1" parent="1" source="bTF0H9JN2Bej_xpVJtce-78" target="bTF0H9JN2Bej_xpVJtce-73">
          <mxGeometry width="160" relative="1" as="geometry">
            <mxPoint x="890" y="820" as="sourcePoint" />
            <mxPoint x="792" y="852" as="targetPoint" />
          </mxGeometry>
        </mxCell>
        <mxCell id="bTF0H9JN2Bej_xpVJtce-83" value="&amp;lt;&amp;lt;extend&amp;gt;&amp;gt;" style="html=1;verticalAlign=bottom;labelBackgroundColor=none;endArrow=open;endFill=0;dashed=1;rounded=0;entryX=0.5;entryY=1;entryDx=0;entryDy=0;exitX=0;exitY=0.5;exitDx=0;exitDy=0;" edge="1" parent="1" source="bTF0H9JN2Bej_xpVJtce-79" target="bTF0H9JN2Bej_xpVJtce-73">
          <mxGeometry width="160" relative="1" as="geometry">
            <mxPoint x="890" y="930" as="sourcePoint" />
            <mxPoint x="792" y="908" as="targetPoint" />
          </mxGeometry>
        </mxCell>
        <mxCell id="bTF0H9JN2Bej_xpVJtce-84" value="Số lượng sản phẩm" style="ellipse;whiteSpace=wrap;html=1;" vertex="1" parent="1">
          <mxGeometry x="1080" y="600" width="120" height="80" as="geometry" />
        </mxCell>
        <mxCell id="bTF0H9JN2Bej_xpVJtce-85" value="Cập nhật địa chỉ" style="ellipse;whiteSpace=wrap;html=1;" vertex="1" parent="1">
          <mxGeometry x="1080" y="710" width="120" height="80" as="geometry" />
        </mxCell>
        <mxCell id="bTF0H9JN2Bej_xpVJtce-86" value="Cập nhật phương thức" style="ellipse;whiteSpace=wrap;html=1;" vertex="1" parent="1">
          <mxGeometry x="1080" y="810" width="120" height="80" as="geometry" />
        </mxCell>
        <mxCell id="bTF0H9JN2Bej_xpVJtce-87" value="&amp;lt;&amp;lt;extend&amp;gt;&amp;gt;" style="html=1;verticalAlign=bottom;labelBackgroundColor=none;endArrow=open;endFill=0;dashed=1;rounded=0;exitX=0;exitY=0.5;exitDx=0;exitDy=0;" edge="1" parent="1" source="bTF0H9JN2Bej_xpVJtce-84" target="bTF0H9JN2Bej_xpVJtce-74">
          <mxGeometry width="160" relative="1" as="geometry">
            <mxPoint x="890" y="720" as="sourcePoint" />
            <mxPoint x="750" y="840" as="targetPoint" />
          </mxGeometry>
        </mxCell>
        <mxCell id="bTF0H9JN2Bej_xpVJtce-88" value="&amp;lt;&amp;lt;extend&amp;gt;&amp;gt;" style="html=1;verticalAlign=bottom;labelBackgroundColor=none;endArrow=open;endFill=0;dashed=1;rounded=0;entryX=1;entryY=0;entryDx=0;entryDy=0;exitX=0;exitY=0.5;exitDx=0;exitDy=0;" edge="1" parent="1" source="bTF0H9JN2Bej_xpVJtce-85" target="bTF0H9JN2Bej_xpVJtce-75">
          <mxGeometry width="160" relative="1" as="geometry">
            <mxPoint x="1090" y="650" as="sourcePoint" />
            <mxPoint x="1010" y="720" as="targetPoint" />
          </mxGeometry>
        </mxCell>
        <mxCell id="bTF0H9JN2Bej_xpVJtce-89" value="&amp;lt;&amp;lt;extend&amp;gt;&amp;gt;" style="html=1;verticalAlign=bottom;labelBackgroundColor=none;endArrow=open;endFill=0;dashed=1;rounded=0;entryX=1;entryY=1;entryDx=0;entryDy=0;exitX=0;exitY=0.5;exitDx=0;exitDy=0;" edge="1" parent="1" source="bTF0H9JN2Bej_xpVJtce-86" target="bTF0H9JN2Bej_xpVJtce-75">
          <mxGeometry width="160" relative="1" as="geometry">
            <mxPoint x="1090" y="750" as="sourcePoint" />
            <mxPoint x="992" y="792" as="targetPoint" />
          </mxGeometry>
        </mxCell>
        <mxCell id="bTF0H9JN2Bej_xpVJtce-90" value="Cập nhật phương thức thanh toán" style="ellipse;whiteSpace=wrap;html=1;" vertex="1" parent="1">
          <mxGeometry x="1080" y="910" width="120" height="80" as="geometry" />
        </mxCell>
        <mxCell id="bTF0H9JN2Bej_xpVJtce-92" value="&amp;lt;&amp;lt;extend&amp;gt;&amp;gt;" style="html=1;verticalAlign=bottom;labelBackgroundColor=none;endArrow=open;endFill=0;dashed=1;rounded=0;entryX=1;entryY=0.5;entryDx=0;entryDy=0;exitX=0;exitY=0.5;exitDx=0;exitDy=0;" edge="1" parent="1" source="bTF0H9JN2Bej_xpVJtce-90" target="bTF0H9JN2Bej_xpVJtce-78">
          <mxGeometry width="160" relative="1" as="geometry">
            <mxPoint x="1090" y="870" as="sourcePoint" />
            <mxPoint x="992" y="848" as="targetPoint" />
          </mxGeometry>
        </mxCell>
        <mxCell id="bTF0H9JN2Bej_xpVJtce-95" value="Quản lí mã giảm giá" style="ellipse;whiteSpace=wrap;html=1;" vertex="1" parent="1">
          <mxGeometry x="1280" y="840" width="120" height="80" as="geometry" />
        </mxCell>
        <mxCell id="bTF0H9JN2Bej_xpVJtce-96" value="Thêm mã giảm giá" style="ellipse;whiteSpace=wrap;html=1;" vertex="1" parent="1">
          <mxGeometry x="1480" y="720" width="120" height="80" as="geometry" />
        </mxCell>
        <mxCell id="bTF0H9JN2Bej_xpVJtce-97" value="Xóa mã giảm giá" style="ellipse;whiteSpace=wrap;html=1;" vertex="1" parent="1">
          <mxGeometry x="1480" y="840" width="120" height="80" as="geometry" />
        </mxCell>
        <mxCell id="bTF0H9JN2Bej_xpVJtce-98" value="Xem thông tin mã giảm gia" style="ellipse;whiteSpace=wrap;html=1;" vertex="1" parent="1">
          <mxGeometry x="1480" y="960" width="120" height="80" as="geometry" />
        </mxCell>
        <mxCell id="bTF0H9JN2Bej_xpVJtce-99" value="&amp;lt;&amp;lt;extend&amp;gt;&amp;gt;" style="html=1;verticalAlign=bottom;labelBackgroundColor=none;endArrow=open;endFill=0;dashed=1;rounded=0;exitX=0;exitY=0.5;exitDx=0;exitDy=0;entryX=1;entryY=0;entryDx=0;entryDy=0;" edge="1" parent="1" source="bTF0H9JN2Bej_xpVJtce-96" target="bTF0H9JN2Bej_xpVJtce-95">
          <mxGeometry width="160" relative="1" as="geometry">
            <mxPoint x="1090" y="650" as="sourcePoint" />
            <mxPoint x="998" y="696" as="targetPoint" />
          </mxGeometry>
        </mxCell>
        <mxCell id="bTF0H9JN2Bej_xpVJtce-100" value="&amp;lt;&amp;lt;extend&amp;gt;&amp;gt;" style="html=1;verticalAlign=bottom;labelBackgroundColor=none;endArrow=open;endFill=0;dashed=1;rounded=0;exitX=0;exitY=0.5;exitDx=0;exitDy=0;entryX=1;entryY=0.5;entryDx=0;entryDy=0;" edge="1" parent="1" source="bTF0H9JN2Bej_xpVJtce-97" target="bTF0H9JN2Bej_xpVJtce-95">
          <mxGeometry width="160" relative="1" as="geometry">
            <mxPoint x="1490" y="770" as="sourcePoint" />
            <mxPoint x="1392" y="862" as="targetPoint" />
          </mxGeometry>
        </mxCell>
        <mxCell id="bTF0H9JN2Bej_xpVJtce-101" value="&amp;lt;&amp;lt;extend&amp;gt;&amp;gt;" style="html=1;verticalAlign=bottom;labelBackgroundColor=none;endArrow=open;endFill=0;dashed=1;rounded=0;exitX=0;exitY=0.5;exitDx=0;exitDy=0;entryX=1;entryY=1;entryDx=0;entryDy=0;" edge="1" parent="1" source="bTF0H9JN2Bej_xpVJtce-98" target="bTF0H9JN2Bej_xpVJtce-95">
          <mxGeometry width="160" relative="1" as="geometry">
            <mxPoint x="1490" y="890" as="sourcePoint" />
            <mxPoint x="1410" y="890" as="targetPoint" />
          </mxGeometry>
        </mxCell>
      </root>
    </mxGraphModel>
  </diagram>
</mxfile>
